<?xml version="1.0" encoding="UTF-8"?>
<svg version="1.1" xmlns="http://www.w3.org/2000/svg" width="150" height="150">
<path d="M0 0 C49.5 0 99 0 150 0 C150 49.5 150 99 150 150 C100.5 150 51 150 0 150 C0 100.5 0 51 0 0 Z " fill="#010219" transform="translate(0,0)"/>
<path d="M0 0 C-0.14019692 2.81288705 -0.28687955 5.62516885 -0.4375 8.4375 C-0.47681641 9.23994141 -0.51613281 10.04238281 -0.55664062 10.86914062 C-0.88671875 16.88671875 -0.88671875 16.88671875 -2 18 C-3.85174706 18.15786308 -5.7090911 18.25107356 -7.56640625 18.31640625 C-8.69111328 18.35830078 -9.81582031 18.40019531 -10.97460938 18.44335938 C-12.15861328 18.48267578 -13.34261719 18.52199219 -14.5625 18.5625 C-15.75037109 18.60568359 -16.93824219 18.64886719 -18.16210938 18.69335938 C-21.10794784 18.79983546 -24.0538743 18.90184841 -27 19 C-26.98839844 19.69327393 -26.97679688 20.38654785 -26.96484375 21.10083008 C-26.90782698 27.05653678 -27.16298759 32.79418346 -28 38.6875 C-28.33 41.100625 -28.66 43.51375 -29 46 C-21.08 46 -13.16 46 -5 46 C-5.309375 48.784375 -5.61875 51.56875 -5.9375 54.4375 C-6.03281006 55.31591553 -6.12812012 56.19433105 -6.22631836 57.09936523 C-6.88888889 62.88888889 -6.88888889 62.88888889 -8 64 C-9.78071246 64.08726223 -11.5648314 64.10699041 -13.34765625 64.09765625 C-14.42724609 64.09443359 -15.50683594 64.09121094 -16.61914062 64.08789062 C-17.75544922 64.07951172 -18.89175781 64.07113281 -20.0625 64.0625 C-21.20267578 64.05798828 -22.34285156 64.05347656 -23.51757812 64.04882812 C-26.34510351 64.03699747 -29.1725264 64.0205141 -32 64 C-31.96132812 65.11761719 -31.92265625 66.23523438 -31.8828125 67.38671875 C-31.8855728 74.43515225 -32.79007225 81.4209641 -33.59912109 88.4128418 C-33.87621907 90.82310373 -34.13965755 93.23461417 -34.40234375 95.64648438 C-34.57730269 97.18759358 -34.75305571 98.72861288 -34.9296875 100.26953125 C-35.00686005 100.98623489 -35.08403259 101.70293854 -35.1635437 102.44136047 C-35.61187971 106.20708357 -36.26704772 108.53409544 -38 112 C-43.61 112 -49.22 112 -55 112 C-53.76511299 95.85864672 -52.1213619 79.81374557 -50.125 63.75 C-49.58978437 59.39225075 -49.05805814 55.03408078 -48.52734375 50.67578125 C-48.39650894 49.60368912 -48.26567413 48.53159698 -48.13087463 47.42701721 C-47.29643877 40.55336613 -46.50397667 33.67632427 -45.75390625 26.79296875 C-45.66095276 25.94076752 -45.56799927 25.08856628 -45.472229 24.21054077 C-45.04293392 20.25729171 -44.62065713 16.30339713 -44.20556641 12.34863281 C-44.05767823 10.97069657 -43.90973281 9.59276647 -43.76171875 8.21484375 C-43.63756592 7.03011475 -43.51341309 5.84538574 -43.38549805 4.62475586 C-43 2 -43 2 -42 1 C-28.14768534 -0.80391879 -13.92885794 -0.09865705 0 0 Z " fill="#FBFBFC" transform="translate(106,18)"/>
</svg>
